<?xml version="1.0" encoding="UTF-8" ?>
<!DOCTYPE svg PUBLIC "-//W3C//DTD SVG 1.1//EN" "http://www.w3.org/Graphics/SVG/1.1/DTD/svg11.dtd">
<svg width="512pt" height="512pt" viewBox="0 0 512 512" version="1.1" xmlns="http://www.w3.org/2000/svg">
<g id="#000000ff">
<path fill="#000000" opacity="1.00" d=" M 248.47 0.00 L 262.58 0.00 C 299.34 1.10 335.90 9.85 368.89 26.19 C 420.45 51.47 463.01 94.59 487.48 146.56 C 502.76 178.62 510.92 213.90 512.00 249.36 L 512.00 262.56 C 510.82 304.01 499.71 345.18 479.28 381.30 C 449.77 434.07 400.99 475.72 344.16 496.41 C 318.07 506.05 290.39 511.10 262.61 512.00 L 248.55 512.00 C 207.41 510.63 166.57 499.58 130.72 479.29 C 78.20 449.92 36.67 401.45 15.89 344.96 C 6.05 318.64 0.92 290.67 0.00 262.61 L 0.00 248.52 C 0.83 228.71 3.47 208.95 8.65 189.78 C 17.62 156.16 33.60 124.45 55.22 97.19 C 87.41 56.44 132.24 25.78 182.01 10.87 C 203.55 4.30 225.98 0.92 248.47 0.00 M 192.99 113.83 C 176.56 122.26 161.89 133.80 148.73 146.69 C 137.04 158.93 126.36 172.74 120.75 188.88 C 118.21 196.48 117.04 204.91 119.63 212.65 C 121.58 218.21 127.01 222.54 133.01 222.49 C 142.38 223.03 151.11 218.74 159.01 214.18 C 168.08 208.45 176.82 202.07 184.42 194.47 C 185.60 193.33 186.88 192.29 188.18 191.29 C 186.00 194.66 183.15 197.51 180.53 200.52 C 170.62 211.89 160.27 222.87 150.11 234.02 C 144.93 238.66 139.17 242.63 134.04 247.35 C 123.71 242.52 113.17 238.13 102.78 233.42 C 102.98 247.37 102.59 261.35 102.95 275.28 C 103.25 274.42 103.85 272.69 104.14 271.83 C 106.77 271.57 109.41 271.72 112.05 271.71 C 103.81 310.51 95.67 349.34 87.32 388.12 C 93.70 388.15 100.07 388.11 106.45 388.14 C 106.30 390.22 104.50 390.29 102.83 390.38 C 102.79 402.26 102.85 414.14 102.80 426.01 C 129.60 414.00 156.64 402.49 183.34 390.29 C 177.38 390.08 171.42 390.35 165.46 390.22 C 169.68 370.48 173.91 350.75 177.95 330.99 C 184.53 321.25 187.27 308.99 184.98 297.43 C 186.95 289.26 188.59 281.02 190.31 272.80 L 190.11 272.10 C 177.13 266.05 163.90 260.50 150.82 254.64 C 155.10 249.66 159.90 245.15 164.23 240.21 C 167.20 236.83 171.05 234.43 174.57 231.70 C 187.67 221.82 200.85 211.99 213.20 201.17 C 214.92 200.32 214.57 197.75 212.78 197.23 C 208.44 195.90 203.32 196.88 199.96 200.00 C 195.71 203.64 191.66 207.55 187.09 210.78 C 200.74 192.36 215.15 174.50 230.15 157.16 C 231.25 155.92 232.07 154.47 232.89 153.03 C 230.13 150.29 226.23 150.00 222.58 149.64 C 228.72 147.19 234.26 143.52 239.58 139.67 C 245.02 135.43 250.37 130.79 253.93 124.80 C 255.64 121.87 255.51 118.34 255.15 115.08 C 254.71 111.52 253.51 107.70 250.50 105.48 C 246.36 102.44 241.05 101.54 236.01 101.72 C 220.92 102.10 206.40 107.20 192.99 113.83 M 342.98 116.10 C 337.61 121.26 333.77 127.70 329.56 133.77 C 323.73 133.90 317.92 134.28 312.10 134.52 C 305.33 134.72 299.66 139.93 297.31 145.99 C 297.03 148.51 300.20 149.47 302.16 149.80 C 308.12 150.33 314.08 149.18 319.99 148.55 C 316.07 154.20 312.68 160.20 309.13 166.09 C 302.41 177.72 295.50 189.36 290.85 202.02 C 288.74 207.87 287.40 214.43 289.28 220.52 C 291.45 226.89 298.69 229.82 304.97 229.64 C 312.64 229.65 318.80 224.39 324.49 219.89 C 326.83 226.07 333.62 229.68 340.07 228.75 C 351.30 227.45 360.71 220.20 368.74 212.72 C 377.74 203.34 386.21 193.02 391.14 180.85 C 392.97 176.00 394.92 170.41 392.75 165.36 C 390.91 161.55 386.48 160.17 382.53 160.61 C 380.60 158.44 378.07 156.63 375.04 156.71 C 365.40 156.27 356.86 161.84 349.55 167.52 C 341.13 174.47 333.40 182.68 328.76 192.68 C 326.79 196.67 325.59 200.96 324.27 205.19 C 320.86 208.85 316.70 211.85 312.39 214.36 C 309.63 215.63 305.70 217.72 303.27 214.79 C 302.07 207.91 305.89 201.68 308.63 195.68 C 316.61 180.23 325.24 165.12 334.27 150.26 C 335.02 149.10 335.76 147.54 337.40 147.62 C 344.31 146.92 351.24 146.49 358.13 145.62 C 360.94 145.28 364.35 144.05 365.02 140.94 C 364.72 138.94 363.08 137.59 361.88 136.11 C 360.49 134.71 359.18 132.74 356.96 132.84 C 353.22 132.58 349.49 133.17 345.76 133.32 C 348.33 129.36 350.89 125.41 353.28 121.34 C 353.99 120.12 354.86 118.58 353.77 117.27 C 350.67 114.99 346.54 115.82 342.98 116.10 M 252.75 163.72 C 238.16 173.62 225.87 188.26 222.28 205.87 C 221.23 212.12 220.87 219.53 225.47 224.54 C 229.61 229.08 236.42 229.53 242.04 228.07 C 250.60 225.76 258.12 220.60 264.61 214.68 C 273.42 206.28 281.26 196.70 286.89 185.87 C 289.55 180.02 292.71 173.61 291.34 167.02 C 290.20 162.25 285.02 159.99 280.47 160.61 C 279.03 158.95 277.38 157.27 275.08 157.00 C 267.06 155.60 259.24 159.36 252.75 163.72 M 197.20 271.35 C 188.89 310.28 180.81 349.25 172.46 388.17 C 194.43 388.08 216.40 388.13 238.38 388.15 C 240.21 380.07 241.67 371.90 243.51 363.81 C 245.21 363.11 246.92 362.41 248.62 361.70 C 256.73 344.05 264.27 326.14 272.60 308.60 C 255.46 300.48 237.92 293.18 220.59 285.44 C 221.63 280.77 222.50 276.06 223.75 271.44 C 214.90 271.25 206.05 271.42 197.20 271.35 M 293.81 271.41 C 276.60 310.37 259.02 349.16 241.80 388.12 C 250.79 388.09 259.79 388.23 268.78 388.05 C 270.70 383.80 272.71 379.59 274.51 375.29 C 285.85 375.23 297.19 375.23 308.54 375.28 C 308.28 379.57 308.71 383.84 308.87 388.13 C 317.76 388.15 326.65 388.08 335.55 388.17 C 335.93 381.44 335.19 374.73 335.26 368.01 C 334.54 336.29 333.54 304.58 333.12 272.85 C 333.46 270.89 331.13 271.46 330.01 271.35 C 317.95 271.40 305.88 271.29 293.81 271.41 M 340.93 271.34 C 344.02 300.15 347.10 328.96 350.31 357.75 C 353.20 357.74 356.09 357.74 358.99 357.71 C 353.25 367.71 348.10 378.02 342.63 388.16 C 351.83 388.12 361.03 388.08 370.22 388.18 C 391.43 349.41 411.90 310.23 433.03 271.42 C 423.84 271.27 414.64 271.42 405.44 271.34 C 395.94 288.64 386.58 306.02 377.20 323.39 C 376.25 324.91 375.82 326.89 374.15 327.83 C 372.73 308.99 370.33 290.23 368.53 271.42 C 359.33 271.27 350.13 271.42 340.93 271.34 Z" />
<path fill="#000000" opacity="1.00" d=" M 213.85 118.94 C 220.93 116.11 228.36 113.91 236.02 113.57 C 238.09 113.58 241.03 113.94 241.60 116.37 C 241.06 120.39 237.84 123.40 235.03 126.05 C 228.21 131.85 220.42 136.65 211.98 139.67 C 209.92 140.01 207.38 141.56 205.55 139.91 C 205.53 139.11 205.49 137.52 205.47 136.72 C 199.57 137.83 194.14 145.98 198.80 151.15 C 203.71 155.54 211.21 154.14 216.86 152.06 C 214.57 154.97 211.75 157.38 209.00 159.84 C 193.91 173.30 178.38 186.40 161.36 197.38 C 154.72 201.38 147.86 205.55 140.11 206.94 C 136.61 207.71 133.09 204.61 133.15 201.08 C 133.22 193.65 136.94 186.88 140.72 180.70 C 149.13 167.16 160.44 155.69 172.46 145.33 C 184.98 134.74 198.57 125.13 213.85 118.94 Z" />
<path fill="#000000" opacity="1.00" d=" M 243.25 191.28 C 250.12 181.34 259.45 172.91 270.70 168.26 C 271.03 170.88 272.74 173.03 275.59 172.66 C 276.43 176.54 273.92 180.02 272.32 183.35 C 266.75 192.75 260.08 201.68 251.67 208.74 C 247.84 211.57 243.84 214.55 239.12 215.64 C 236.44 216.37 234.45 213.41 234.84 211.01 C 235.32 203.70 239.12 197.13 243.25 191.28 Z" />
<path fill="#000000" opacity="1.00" d=" M 348.23 187.26 C 354.55 178.97 363.04 172.38 372.60 168.23 C 372.98 171.12 374.94 172.69 377.70 173.16 C 378.12 175.33 377.20 177.40 376.30 179.31 C 373.05 186.31 368.48 192.60 363.67 198.60 C 358.59 204.92 352.49 210.59 345.17 214.19 C 343.33 215.03 341.36 215.87 339.29 215.66 C 335.93 214.15 337.07 209.90 337.42 207.04 C 339.24 199.64 343.64 193.21 348.23 187.26 Z" />
<path fill="#000000" opacity="1.00" d=" M 132.58 298.10 C 137.38 297.40 142.27 297.75 147.10 297.83 C 154.51 298.32 160.01 305.84 158.89 313.06 C 157.26 323.13 147.43 331.40 137.15 330.93 C 143.06 328.37 148.27 323.79 150.53 317.63 C 153.53 311.28 150.75 302.78 144.45 299.61 C 140.77 297.78 136.54 298.42 132.58 298.10 Z" />
<path fill="#000000" opacity="1.00" d=" M 299.22 320.06 C 301.84 314.71 303.81 309.04 306.61 303.79 C 306.99 318.92 307.40 334.05 307.80 349.19 C 300.63 349.22 293.45 349.15 286.28 349.23 C 287.07 347.47 287.87 345.72 288.67 343.97 C 293.41 341.91 298.15 339.85 302.85 337.69 C 302.30 332.37 302.33 327.02 302.52 321.69 C 301.41 321.14 300.32 320.60 299.22 320.06 Z" />
<path fill="#000000" opacity="1.00" d=" M 120.20 357.08 C 126.81 356.90 133.45 357.37 140.03 356.54 C 133.46 358.51 126.60 359.25 119.76 358.85 C 119.87 358.41 120.09 357.53 120.20 357.08 Z" />
</g>
<g id="#df0031ff">
<path fill="#df0031" opacity="1.00" d=" M 192.99 113.83 C 206.40 107.20 220.92 102.10 236.01 101.72 C 241.05 101.54 246.36 102.44 250.50 105.48 C 253.51 107.70 254.71 111.52 255.15 115.08 C 255.51 118.34 255.64 121.87 253.93 124.80 C 250.37 130.79 245.02 135.43 239.58 139.67 C 234.26 143.52 228.72 147.19 222.58 149.64 C 226.23 150.00 230.13 150.29 232.89 153.03 C 232.07 154.47 231.25 155.92 230.15 157.16 C 215.15 174.50 200.74 192.36 187.09 210.78 C 191.66 207.55 195.71 203.64 199.96 200.00 C 203.32 196.88 208.44 195.90 212.78 197.23 C 214.57 197.75 214.92 200.32 213.20 201.17 C 200.85 211.99 187.67 221.82 174.57 231.70 C 171.05 234.43 167.20 236.83 164.23 240.21 C 159.90 245.15 155.10 249.66 150.82 254.64 C 163.90 260.50 177.13 266.05 190.11 272.10 L 190.31 272.80 C 188.59 281.02 186.95 289.26 184.98 297.43 C 182.28 282.55 167.90 271.70 153.03 271.72 C 139.37 271.67 125.71 271.72 112.05 271.71 C 109.41 271.72 106.77 271.57 104.14 271.83 C 103.85 272.69 103.25 274.42 102.95 275.28 C 102.59 261.35 102.98 247.37 102.78 233.42 C 113.17 238.13 123.71 242.52 134.04 247.35 C 139.17 242.63 144.93 238.66 150.11 234.02 C 160.27 222.87 170.62 211.89 180.53 200.52 C 183.15 197.51 186.00 194.66 188.18 191.29 C 186.88 192.29 185.60 193.33 184.42 194.47 C 176.82 202.07 168.08 208.45 159.01 214.18 C 151.11 218.74 142.38 223.03 133.01 222.49 C 127.01 222.54 121.58 218.21 119.63 212.65 C 117.04 204.91 118.21 196.48 120.75 188.88 C 126.36 172.74 137.04 158.93 148.73 146.69 C 161.89 133.80 176.56 122.26 192.99 113.83 M 213.85 118.94 C 198.57 125.13 184.98 134.74 172.46 145.33 C 160.44 155.69 149.13 167.16 140.72 180.70 C 136.94 186.88 133.22 193.65 133.15 201.08 C 133.09 204.61 136.61 207.71 140.11 206.94 C 147.86 205.55 154.72 201.38 161.36 197.38 C 178.38 186.40 193.91 173.30 209.00 159.84 C 211.75 157.38 214.57 154.97 216.86 152.06 C 211.21 154.14 203.71 155.54 198.80 151.15 C 194.14 145.98 199.57 137.83 205.47 136.72 C 205.49 137.52 205.53 139.11 205.55 139.91 C 207.38 141.56 209.92 140.01 211.98 139.67 C 220.42 136.65 228.21 131.85 235.03 126.05 C 237.84 123.40 241.06 120.39 241.60 116.37 C 241.03 113.94 238.09 113.58 236.02 113.57 C 228.36 113.91 220.93 116.11 213.85 118.94 Z" />
<path fill="#df0031" opacity="1.00" d=" M 342.98 116.10 C 346.54 115.82 350.67 114.99 353.77 117.27 C 354.86 118.58 353.99 120.12 353.28 121.34 C 350.89 125.41 348.33 129.36 345.76 133.32 C 349.49 133.17 353.22 132.58 356.96 132.84 C 359.18 132.74 360.49 134.71 361.88 136.11 C 363.08 137.59 364.72 138.94 365.02 140.94 C 364.35 144.05 360.94 145.28 358.13 145.62 C 351.24 146.49 344.31 146.92 337.40 147.62 C 335.76 147.54 335.02 149.10 334.27 150.26 C 325.24 165.12 316.61 180.23 308.63 195.68 C 305.89 201.68 302.07 207.91 303.27 214.79 C 305.70 217.72 309.63 215.63 312.39 214.36 C 316.70 211.85 320.86 208.85 324.27 205.19 C 325.59 200.96 326.79 196.67 328.76 192.68 C 333.40 182.68 341.13 174.47 349.55 167.52 C 356.86 161.84 365.40 156.27 375.04 156.71 C 378.07 156.63 380.60 158.44 382.53 160.61 C 386.48 160.17 390.91 161.55 392.75 165.36 C 394.92 170.41 392.97 176.00 391.14 180.85 C 386.21 193.02 377.74 203.34 368.74 212.72 C 360.71 220.20 351.30 227.45 340.07 228.75 C 333.62 229.68 326.83 226.07 324.49 219.89 C 318.80 224.39 312.64 229.65 304.97 229.64 C 298.69 229.82 291.45 226.89 289.28 220.52 C 287.40 214.43 288.74 207.87 290.85 202.02 C 295.50 189.36 302.41 177.72 309.13 166.09 C 312.68 160.20 316.07 154.20 319.99 148.55 C 314.08 149.18 308.12 150.33 302.16 149.80 C 300.20 149.47 297.03 148.51 297.31 145.99 C 299.66 139.93 305.33 134.72 312.10 134.52 C 317.92 134.28 323.73 133.90 329.56 133.77 C 333.77 127.70 337.61 121.26 342.98 116.10 M 348.23 187.26 C 343.64 193.21 339.24 199.64 337.42 207.04 C 337.07 209.90 335.93 214.15 339.29 215.66 C 341.36 215.87 343.33 215.03 345.17 214.19 C 352.49 210.59 358.59 204.92 363.67 198.60 C 368.48 192.60 373.05 186.31 376.30 179.31 C 377.20 177.40 378.12 175.33 377.70 173.16 C 374.94 172.69 372.98 171.12 372.60 168.23 C 363.04 172.38 354.55 178.97 348.23 187.26 Z" />
<path fill="#df0031" opacity="1.00" d=" M 252.75 163.72 C 259.24 159.36 267.06 155.60 275.08 157.00 C 277.38 157.27 279.03 158.95 280.47 160.61 C 285.02 159.99 290.20 162.25 291.34 167.02 C 292.71 173.61 289.55 180.02 286.89 185.87 C 281.26 196.70 273.42 206.28 264.61 214.68 C 258.12 220.60 250.60 225.76 242.04 228.07 C 236.42 229.53 229.61 229.08 225.47 224.54 C 220.87 219.53 221.23 212.12 222.28 205.87 C 225.87 188.26 238.16 173.62 252.75 163.72 M 243.25 191.28 C 239.12 197.13 235.32 203.70 234.84 211.01 C 234.45 213.41 236.44 216.37 239.12 215.64 C 243.84 214.55 247.84 211.57 251.67 208.74 C 260.08 201.68 266.75 192.75 272.32 183.35 C 273.92 180.02 276.43 176.54 275.59 172.66 C 272.74 173.03 271.03 170.88 270.70 168.26 C 259.45 172.91 250.12 181.34 243.25 191.28 Z" />
<path fill="#df0031" opacity="1.00" d=" M 220.59 285.44 C 237.92 293.18 255.46 300.48 272.60 308.60 C 264.27 326.14 256.73 344.05 248.62 361.70 C 246.92 362.41 245.21 363.11 243.51 363.81 L 243.90 362.12 C 230.68 362.05 217.45 362.07 204.23 362.11 C 209.76 336.57 215.15 311.00 220.59 285.44 Z" />
<path fill="#df0031" opacity="1.00" d=" M 132.58 298.10 C 136.54 298.42 140.77 297.78 144.45 299.61 C 150.75 302.78 153.53 311.28 150.53 317.63 C 148.27 323.79 143.06 328.37 137.15 330.93 C 133.37 331.01 129.58 330.87 125.80 330.92 C 128.10 319.99 130.56 309.09 132.58 298.10 Z" />
<path fill="#df0031" opacity="1.00" d=" M 299.22 320.06 C 300.32 320.60 301.41 321.14 302.52 321.69 C 302.33 327.02 302.30 332.37 302.85 337.69 C 298.15 339.85 293.41 341.91 288.67 343.97 C 292.20 336.00 295.71 328.03 299.22 320.06 Z" />
<path fill="#df0031" opacity="1.00" d=" M 140.03 356.54 C 155.54 353.86 169.44 344.13 177.95 330.99 C 173.91 350.75 169.68 370.48 165.46 390.22 C 171.42 390.35 177.38 390.08 183.34 390.29 C 156.64 402.49 129.60 414.00 102.80 426.01 C 102.85 414.14 102.79 402.26 102.83 390.38 C 104.50 390.29 106.30 390.22 106.45 388.14 C 108.88 388.13 111.32 388.13 113.76 388.13 C 115.88 378.40 117.72 368.61 119.76 358.85 C 126.60 359.25 133.46 358.51 140.03 356.54 Z" />
</g>
<g id="#ffffffff">
<path fill="#ffffff" opacity="1.00" d=" M 197.20 271.35 C 206.05 271.42 214.90 271.25 223.75 271.44 C 222.50 276.06 221.63 280.77 220.59 285.44 C 215.15 311.00 209.76 336.57 204.23 362.11 C 217.45 362.07 230.68 362.05 243.90 362.12 L 243.51 363.81 C 241.67 371.90 240.21 380.07 238.38 388.15 C 216.40 388.13 194.43 388.08 172.46 388.17 C 180.81 349.25 188.89 310.28 197.20 271.35 Z" />
<path fill="#ffffff" opacity="1.00" d=" M 293.81 271.41 C 305.88 271.29 317.95 271.40 330.01 271.35 C 331.13 271.46 333.46 270.89 333.12 272.85 C 333.54 304.58 334.54 336.29 335.26 368.01 C 335.19 374.73 335.93 381.44 335.55 388.17 C 326.65 388.08 317.76 388.15 308.87 388.13 C 308.71 383.84 308.28 379.57 308.54 375.28 C 297.19 375.23 285.85 375.23 274.51 375.29 C 272.71 379.59 270.70 383.80 268.78 388.05 C 259.79 388.23 250.79 388.09 241.80 388.12 C 259.02 349.16 276.60 310.37 293.81 271.41 M 299.22 320.06 C 295.71 328.03 292.20 336.00 288.67 343.97 C 287.87 345.72 287.07 347.47 286.28 349.23 C 293.45 349.15 300.63 349.22 307.80 349.19 C 307.40 334.05 306.99 318.92 306.61 303.79 C 303.81 309.04 301.84 314.71 299.22 320.06 Z" />
<path fill="#ffffff" opacity="1.00" d=" M 340.93 271.34 C 350.13 271.42 359.33 271.27 368.53 271.42 C 370.33 290.23 372.73 308.99 374.15 327.83 C 375.82 326.89 376.25 324.91 377.20 323.39 C 386.58 306.02 395.94 288.64 405.44 271.34 C 414.64 271.42 423.84 271.27 433.03 271.42 C 411.90 310.23 391.43 349.41 370.22 388.18 C 361.03 388.08 351.83 388.12 342.63 388.16 C 348.10 378.02 353.25 367.71 358.99 357.71 C 356.09 357.74 353.20 357.74 350.31 357.75 C 347.10 328.96 344.02 300.15 340.93 271.34 Z" />
<path fill="#ffffff" opacity="1.00" d=" M 112.05 271.71 C 125.71 271.72 139.37 271.67 153.03 271.72 C 167.90 271.70 182.28 282.55 184.98 297.43 C 187.27 308.99 184.53 321.25 177.95 330.99 C 169.44 344.13 155.54 353.86 140.03 356.54 C 133.45 357.37 126.81 356.90 120.20 357.08 C 120.09 357.53 119.87 358.41 119.76 358.85 C 117.72 368.61 115.88 378.40 113.76 388.13 C 111.32 388.13 108.88 388.13 106.45 388.14 C 100.07 388.11 93.70 388.15 87.32 388.12 C 95.67 349.34 103.81 310.51 112.05 271.71 M 132.58 298.10 C 130.56 309.09 128.10 319.99 125.80 330.92 C 129.58 330.87 133.37 331.01 137.15 330.93 C 147.43 331.40 157.26 323.13 158.89 313.06 C 160.01 305.84 154.51 298.32 147.10 297.83 C 142.27 297.75 137.38 297.40 132.58 298.10 Z" />
</g>
</svg>
